# xmcd
#
# Track frame offsets: 
#        150
#        4306
#        9285
#        14310
#        18441
#        22630
#        25681
#        31809
#        35791
#        41377
#        47127
#        52247
#        56867
#        60075
#        63410
#        68395
#        71868
#        77582
#        85132
#        89766
#        96506
#        104137
#        107073
#        107986
#        115235
#        122903
#        126679
#        127648
#        134871
#        139599
#        146542
#        150506
#        158057
#        162825
#        169824
#        177102
#        180829
#        181995
#        187056
#        195323
#        202779
#        203229
#        206080
#        207618
#        212808
#        215542
#        216812
#        219006
#        219645
#        220675
#        222236
#        224860
#        227781
#        233022
#        233625
#        235228
#        238624
#        239707
#        244500
#        248475
#        253157
#        259930
#
# Disc length: 3486 seconds
#
# Revision: 0
# Processed by: cddbd v1.5.1PL2 Copyright (c) Steve Scherf et al.
# Submitted via: ExactAudioCopy v0.95a5
#
DISCID=920d9c3e
DTITLE=Magrudergrind - Sixty Two Trax Of Thrash (Collection)
DYEAR=2005
DGENRE=Grindcore
TTITLE0=A Reaction With A Steak Knife
TTITLE1=Casablanca Detonation
TTITLE2=The 2nd Wave
TTITLE3=Fascist Found Hung
TTITLE4=End of Season Sale at Cerebral Department
TTITLE5=I'd Like a Refund or Expect Arson Against Your Place Of Busine
TTITLE5=ss
TTITLE6=Mr. Arnold Palmer? Nice Meal For Jeffrey Dahmer
TTITLE7=My Inner Self Is Telling Me That Something In This Room Is At 
TTITLE7=Its Unintelligent High Point.
TTITLE8=Spicy Delight
TTITLE9=Anti Scenester Motivation
TTITLE10=Spock Cut Depletion
TTITLE11=Esteem On The Floor
TTITLE12=Inventory Of Flesh
TTITLE13=Thresh Strike On #63
TTITLE14=Circle Pit Casserole
TTITLE15=My Lai Massacre
TTITLE16=Letter Bomb To Real Estate Company Is Less Sign Distribution,
TTITLE16=But More Economic Value For Me
TTITLE17=The Symptom Undiagnosed
TTITLE18=Terror Through Exile
TTITLE19=Power Client Power Washing
TTITLE20=Workers Pride To Die
TTITLE21=Thrash Unit Three Five Five
TTITLE22=211
TTITLE23=The Stench Of My Cat's Shit Is Equivalent To Your $50 Perfume
TTITLE24=Culture Of Violence
TTITLE25=Blood Not Milk
TTITLE26=In My Quest For The Forsaken Necro Remote, I Stumbled Across 
TTITLE26=Your Mother's Lifeless Corpse Eating A Shit Burrito
TTITLE27=Inhalation White Powder Substance Self-Extermination
TTITLE28=Not A Happy Meal For a 13 Year Old Girl Who Found Razor Blade
TTITLE28=s In Her French Fries
TTITLE29=Trophy Case Full Of Decapitated Human Corpses Won At Last Yea
TTITLE29=r's YMCA Youth Dismemberment/Suicide Day Event
TTITLE30=TPDG
TTITLE31=Reversal Am Funeral
TTITLE32=Pieces Of Glass Stuck In Your Bloody Knuckles
TTITLE33=The Plastic Cancer
TTITLE34=Served Chunky Blood Instead of Marinara Sauce
TTITLE35=Slave Labor In A Cup
TTITLE36=Mylefthand (Japanese)
TTITLE37=Spitting Up Sin
TTITLE38=Stop Drop Sweatshop
TTITLE39=Religious Baffle
TTITLE40=The Fast One
TTITLE41=Vomit Soup
TTITLE42=Mylefthand (English)
TTITLE43=War For Oil, Spill More Blood For Soil
TTITLE44=Gangrene On Your Feet
TTITLE45=Agnostic Technology
TTITLE46=Army of None
TTITLE47=Hitler Only Had One Testicle Pt. 1
TTITLE48=Humanity Aid
TTITLE49=Kill To Thrash
TTITLE50=Song Seven
TTITLE51=Suburban Bloodshed
TTITLE52=Elitists Have No Place In Hardcore
TTITLE53=Hitler Only Had One Testicle Pt. 2
TTITLE54=Ballad Of Christ
TTITLE55=The Prick Has Made Its Name
TTITLE56=America On Alert
TTITLE57=Grind - Jazz Fusion
TTITLE58=3:28 AM
TTITLE59=Fuck Your Protein Source
TTITLE60=Blood Covered Hands
TTITLE61=Housewife Plague
EXTD=
EXTT0=
EXTT1=
EXTT2=
EXTT3=
EXTT4=
EXTT5=
EXTT6=
EXTT7=
EXTT8=
EXTT9=
EXTT10=
EXTT11=
EXTT12=
EXTT13=
EXTT14=
EXTT15=
EXTT16=
EXTT17=
EXTT18=
EXTT19=
EXTT20=
EXTT21=
EXTT22=
EXTT23=
EXTT24=
EXTT25=
EXTT26=
EXTT27=
EXTT28=
EXTT29=
EXTT30=
EXTT31=
EXTT32=
EXTT33=
EXTT34=
EXTT35=
EXTT36=
EXTT37=
EXTT38=
EXTT39=
EXTT40=
EXTT41=
EXTT42=
EXTT43=
EXTT44=
EXTT45=
EXTT46=
EXTT47=
EXTT48=
EXTT49=
EXTT50=
EXTT51=
EXTT52=
EXTT53=
EXTT54=
EXTT55=
EXTT56=
EXTT57=
EXTT58=
EXTT59=
EXTT60=
EXTT61=
PLAYORDER=
